<svg width="21" height="21" viewBox="0 0 21 21" fill="none" xmlns="http://www.w3.org/2000/svg">
<rect width="21" height="21" rx="10.5" fill="#3456F3"/>
<path d="M9.58967 15V8.45455H11.405V15H9.58967ZM10.5016 7.6108C10.2317 7.6108 10.0002 7.52131 9.807 7.34233C9.61665 7.16051 9.52148 6.94318 9.52148 6.69034C9.52148 6.44034 9.61665 6.22585 9.807 6.04688C10.0002 5.86506 10.2317 5.77415 10.5016 5.77415C10.7715 5.77415 11.0016 5.86506 11.1919 6.04688C11.3851 6.22585 11.4817 6.44034 11.4817 6.69034C11.4817 6.94318 11.3851 7.16051 11.1919 7.34233C11.0016 7.52131 10.7715 7.6108 10.5016 7.6108Z" fill="white"/>
</svg>
